# xmcd CD database file
#
# Track frame offsets:
#	150
#	23625
#	45437
#	65850
#	87450
#	108675
#	130687
#	153800
#	169237
#	188212
#
# Disc length: 2822 seconds
#
# Revision: 0
# Processed by: cddbd v1.5.1PL2 Copyright (c) Steve Scherf et al.
# Submitted via: CDex 1.51
#
DISCID=810b040a
DTITLE=山本潤子 - OASIS
DYEAR=1997
DGENRE=JPop
TTITLE0=Because of rain
TTITLE1=オアシス
TTITLE2=プラチナとダイヤモンド
TTITLE3=Married life
TTITLE4=We are in love
TTITLE5=冷たい女
TTITLE6=アクセル
TTITLE7=神様の前菜
TTITLE8=自由
TTITLE9=記憶の森
EXTD=YEAR: 1997
EXTT0=
EXTT1=
EXTT2=
EXTT3=
EXTT4=
EXTT5=
EXTT6=
EXTT7=
EXTT8=
EXTT9=
PLAYORDER=
